<mxfile host="app.diagrams.net" modified="2024-07-19T05:46:26.597Z" agent="Mozilla/5.0 (Windows NT 10.0; Win64; x64) AppleWebKit/537.36 (KHTML, like Gecko) Chrome/126.0.0.0 Safari/537.36" etag="gp7AZQDnKcOStS-qnNj1" version="24.7.1" type="device">
  <diagram name="Page-1" id="ULn17sJcUOEcsdKLEY8c">
    <mxGraphModel dx="683" dy="373" grid="1" gridSize="10" guides="1" tooltips="1" connect="1" arrows="1" fold="1" page="1" pageScale="1" pageWidth="827" pageHeight="1169" math="0" shadow="0">
      <root>
        <mxCell id="0" />
        <mxCell id="1" parent="0" />
        <mxCell id="4w0l3_rAvi6Gu2To49Zy-1" value="AI arm 结构设计" style="rounded=1;whiteSpace=wrap;html=1;" vertex="1" parent="1">
          <mxGeometry x="290" y="130" width="150" height="60" as="geometry" />
        </mxCell>
        <mxCell id="4w0l3_rAvi6Gu2To49Zy-2" value="" style="ellipse;whiteSpace=wrap;html=1;aspect=fixed;" vertex="1" parent="1">
          <mxGeometry x="325" y="340" width="80" height="80" as="geometry" />
        </mxCell>
      </root>
    </mxGraphModel>
  </diagram>
</mxfile>
